<svg width="65" height="45" viewBox="0 0 65 45" fill="none" xmlns="http://www.w3.org/2000/svg">
<path d="M28.1667 44.9015C29.3854 45.2897 30.6944 44.4826 30.6944 43.3179V4.76089C30.6944 4.33179 30.5139 3.9027 30.1302 3.63707C27.9184 2.0433 22.8403 0 16.25 0C10.5512 0 5.22483 1.35879 2.04253 2.46218C0.767361 2.9117 0 4.05595 0 5.29214V43.1238C0 44.3396 1.44444 45.1876 2.71962 44.8096C6.27431 43.7368 11.9054 42.5006 16.25 42.5006C20.0755 42.5006 25.1649 43.9309 28.1667 44.9015ZM36.8333 44.9015C39.8351 43.9309 44.9245 42.5006 48.75 42.5006C53.0946 42.5006 58.7257 43.7368 62.2804 44.8096C63.5556 45.1978 65 44.3396 65 43.1238V5.29214C65 4.05595 64.2326 2.9117 62.9575 2.47239C59.7752 1.35879 54.4488 0 48.75 0C42.1597 0 37.0816 2.0433 34.8698 3.63707C34.4974 3.9027 34.3056 4.33179 34.3056 4.76089V43.3179C34.3056 44.4826 35.6259 45.2897 36.8333 44.9015Z" fill="#E1EFE1"/>
</svg>
