<svg width="412" height="351" viewBox="0 0 412 351" fill="none" xmlns="http://www.w3.org/2000/svg">
<rect width="300" height="320.839" transform="translate(0 30)" fill="#E1EFE1" fill-opacity="0.5"/>
<path d="M294 170.839H152.732C146.688 164.331 127.019 146.839 90 146.839C52.9812 146.839 33.3116 164.331 27.2684 170.839H6C4.4087 170.839 2.88258 171.471 1.75736 172.596C0.632142 173.721 0 175.248 0 176.839V344.839C0 346.43 0.632142 347.956 1.75736 349.082C2.88258 350.207 4.4087 350.839 6 350.839H294C295.591 350.839 297.117 350.207 298.243 349.082C299.368 347.956 300 346.43 300 344.839V176.839C300 175.248 299.368 173.721 298.243 172.596C297.117 171.471 295.591 170.839 294 170.839ZM90 158.839C122.88 158.839 139.576 174.217 144 179.039V331.143C128.233 320.02 109.288 314.3 90 314.839C70.7118 314.3 51.7675 320.02 36 331.143V179.051C40.418 174.275 57.2432 158.839 90 158.839ZM134.084 338.839H45.9998C59.1709 330.607 74.4734 326.434 90 326.839C105.555 326.412 120.891 330.587 134.084 338.839ZM12 182.839H24V338.839H12V182.839ZM288 338.839H156V182.839H288V338.839Z" fill="#1E1E1E"/>
<path d="M59.9209 189.018C60.6775 189.018 61.4265 188.868 62.1246 188.576C62.8226 188.284 63.4558 187.857 63.9873 187.318C64.043 187.274 69.87 182.839 90 182.839C109.386 182.839 115.506 186.952 115.983 187.295C117.145 188.341 118.67 188.892 120.232 188.831C121.794 188.769 123.271 188.101 124.348 186.967C125.424 185.833 126.015 184.324 125.996 182.76C125.976 181.197 125.347 179.703 124.242 178.597C122.947 177.302 115.207 170.839 90 170.839C64.793 170.839 57.0527 177.302 55.758 178.597C54.6143 179.729 53.9602 181.264 53.9361 182.873C53.9119 184.482 54.5198 186.036 55.629 187.201C56.1896 187.772 56.8574 188.226 57.5939 188.537C58.3304 188.849 59.1212 189.012 59.9209 189.018Z" fill="#1E1E1E"/>
<path d="M59.9209 219.018C60.6775 219.018 61.4265 218.868 62.1246 218.576C62.8226 218.284 63.4558 217.857 63.9873 217.318C64.043 217.274 69.87 212.839 90 212.839C109.386 212.839 115.506 216.952 115.983 217.295C117.145 218.341 118.67 218.892 120.232 218.831C121.794 218.769 123.271 218.101 124.348 216.967C125.424 215.833 126.015 214.324 125.996 212.76C125.976 211.197 125.347 209.703 124.242 208.597C122.947 207.302 115.207 200.839 90 200.839C64.793 200.839 57.0527 207.302 55.758 208.597C54.6143 209.729 53.9602 211.264 53.9361 212.873C53.9119 214.482 54.5198 216.036 55.629 217.201C56.1896 217.772 56.8574 218.226 57.5939 218.537C58.3304 218.849 59.1212 219.012 59.9209 219.018Z" fill="#1E1E1E"/>
<path d="M59.9209 249.018C60.6775 249.018 61.4265 248.868 62.1246 248.576C62.8226 248.284 63.4558 247.857 63.9873 247.318C64.043 247.274 69.87 242.839 90 242.839C109.386 242.839 115.506 246.952 115.983 247.295C117.145 248.341 118.67 248.892 120.232 248.831C121.794 248.769 123.271 248.101 124.348 246.967C125.424 245.833 126.015 244.324 125.996 242.76C125.976 241.197 125.347 239.703 124.242 238.597C122.947 237.302 115.207 230.839 90 230.839C64.793 230.839 57.0527 237.302 55.758 238.597C54.6143 239.729 53.9602 241.264 53.9361 242.873C53.9119 244.482 54.5198 246.036 55.629 247.201C56.1896 247.772 56.8574 248.226 57.5939 248.537C58.3304 248.849 59.1212 249.012 59.9209 249.018Z" fill="#1E1E1E"/>
<path d="M59.9209 279.018C60.6775 279.018 61.4265 278.868 62.1246 278.576C62.8226 278.284 63.4558 277.857 63.9873 277.318C64.043 277.274 69.87 272.839 90 272.839C109.386 272.839 115.506 276.952 115.983 277.295C117.145 278.341 118.67 278.892 120.232 278.831C121.794 278.769 123.271 278.101 124.348 276.967C125.424 275.833 126.015 274.324 125.996 272.76C125.976 271.197 125.347 269.703 124.242 268.597C122.947 267.302 115.207 260.839 90 260.839C64.793 260.839 57.0527 267.302 55.758 268.597C54.6143 269.729 53.9602 271.264 53.9361 272.873C53.9119 274.482 54.5198 276.036 55.629 277.201C56.1896 277.772 56.8574 278.226 57.5939 278.537C58.3304 278.849 59.1212 279.012 59.9209 279.018Z" fill="#1E1E1E"/>
<path d="M59.9209 309.018C60.6775 309.018 61.4265 308.868 62.1246 308.576C62.8226 308.284 63.4558 307.857 63.9873 307.318C64.043 307.274 69.87 302.839 90 302.839C109.386 302.839 115.506 306.952 115.983 307.295C117.145 308.341 118.67 308.892 120.232 308.831C121.794 308.769 123.271 308.101 124.348 306.967C125.424 305.833 126.015 304.324 125.996 302.76C125.976 301.197 125.347 299.703 124.242 298.597C122.947 297.302 115.207 290.839 90 290.839C64.793 290.839 57.0527 297.302 55.758 298.597C54.6143 299.729 53.9602 301.264 53.9361 302.873C53.9119 304.482 54.5198 306.036 55.629 307.201C56.1896 307.772 56.8574 308.226 57.5939 308.537C58.3304 308.849 59.1212 309.012 59.9209 309.018Z" fill="#1E1E1E"/>
<path d="M232.258 2.49316L218.078 16.6728L256.164 54.7588L270.344 40.5791C277.668 33.2549 277.668 21.3896 270.344 14.0654L258.801 2.49316C251.476 -4.83105 239.611 -4.83105 232.287 2.49316H232.258ZM211.457 23.2939L143.166 91.6143C140.119 94.6611 137.893 98.4404 136.662 102.571L126.291 137.815C125.559 140.306 126.232 142.972 128.049 144.788C129.865 146.604 132.531 147.278 134.992 146.575L170.236 136.204C174.367 134.974 178.146 132.747 181.193 129.7L249.543 61.3799L211.457 23.2939Z" fill="#1E1E1E"/>
<g clip-path="url(#clip0_10_39)">
<g filter="url(#filter0_d_10_39)">
<path d="M312 227.75C312 220.855 317.605 215.25 324.5 215.25H399.5C406.395 215.25 412 220.855 412 227.75V290.25C412 297.145 406.395 302.75 399.5 302.75H324.5C317.605 302.75 312 297.145 312 290.25V227.75ZM375.242 248.551C374.363 247.262 372.918 246.5 371.375 246.5C369.832 246.5 368.367 247.262 367.508 248.551L350.516 273.473L345.34 267.008C344.441 265.895 343.094 265.25 341.688 265.25C340.281 265.25 338.914 265.895 338.035 267.008L325.535 282.633C324.402 284.039 324.188 285.973 324.969 287.594C325.75 289.215 327.391 290.25 329.188 290.25H347.938H354.188H394.812C396.551 290.25 398.152 289.293 398.953 287.75C399.754 286.207 399.656 284.352 398.68 282.926L375.242 248.551ZM333.875 246.5C336.361 246.5 338.746 245.512 340.504 243.754C342.262 241.996 343.25 239.611 343.25 237.125C343.25 234.639 342.262 232.254 340.504 230.496C338.746 228.738 336.361 227.75 333.875 227.75C331.389 227.75 329.004 228.738 327.246 230.496C325.488 232.254 324.5 234.639 324.5 237.125C324.5 239.611 325.488 241.996 327.246 243.754C329.004 245.512 331.389 246.5 333.875 246.5Z" fill="#1E1E1E"/>
</g>
</g>
<defs>
<filter id="filter0_d_10_39" x="308" y="215.25" width="108" height="95.5" filterUnits="userSpaceOnUse" color-interpolation-filters="sRGB">
<feFlood flood-opacity="0" result="BackgroundImageFix"/>
<feColorMatrix in="SourceAlpha" type="matrix" values="0 0 0 0 0 0 0 0 0 0 0 0 0 0 0 0 0 0 127 0" result="hardAlpha"/>
<feOffset dy="4"/>
<feGaussianBlur stdDeviation="2"/>
<feComposite in2="hardAlpha" operator="out"/>
<feColorMatrix type="matrix" values="0 0 0 0 0 0 0 0 0 0 0 0 0 0 0 0 0 0 0.25 0"/>
<feBlend mode="normal" in2="BackgroundImageFix" result="effect1_dropShadow_10_39"/>
<feBlend mode="normal" in="SourceGraphic" in2="effect1_dropShadow_10_39" result="shape"/>
</filter>
<clipPath id="clip0_10_39">
<rect width="100" height="100" fill="white" transform="translate(312 209)"/>
</clipPath>
</defs>
</svg>
