<svg width="50" height="55" viewBox="0 0 50 55" fill="none" xmlns="http://www.w3.org/2000/svg">
<path d="M25 27C28.7888 27 32.4224 25.5777 35.1015 23.0459C37.7806 20.5142 39.2857 17.0804 39.2857 13.5C39.2857 9.91958 37.7806 6.4858 35.1015 3.95406C32.4224 1.42232 28.7888 0 25 0C21.2112 0 17.5776 1.42232 14.8985 3.95406C12.2194 6.4858 10.7143 9.91958 10.7143 13.5C10.7143 17.0804 12.2194 20.5142 14.8985 23.0459C17.5776 25.5777 21.2112 27 25 27ZM19.8996 32.0625C8.90625 32.0625 0 40.4789 0 50.8676C0 52.5973 1.48438 54 3.31473 54H46.6853C48.5156 54 50 52.5973 50 50.8676C50 40.4789 41.0938 32.0625 30.1004 32.0625H19.8996Z" fill="#E1EFE1"/>
</svg>
