<svg width="103" height="89" viewBox="0 0 103 89" fill="none" xmlns="http://www.w3.org/2000/svg">
<path d="M60 44C63.7888 44 67.4224 42.5777 70.1015 40.0459C72.7806 37.5142 74.2857 34.0804 74.2857 30.5C74.2857 26.9196 72.7806 23.4858 70.1015 20.9541C67.4224 18.4223 63.7888 17 60 17C56.2112 17 52.5776 18.4223 49.8985 20.9541C47.2194 23.4858 45.7143 26.9196 45.7143 30.5C45.7143 34.0804 47.2194 37.5142 49.8985 40.0459C52.5776 42.5777 56.2112 44 60 44ZM54.8996 49.0625C43.9062 49.0625 35 57.4789 35 67.8676C35 69.5973 36.4844 71 38.3147 71H81.6853C83.5156 71 85 69.5973 85 67.8676C85 57.4789 76.0938 49.0625 65.1004 49.0625H54.8996Z" fill="#E1EFE1"/>
<path d="M18.9911 48.3828C19.5491 48.8711 20.4554 48.8711 21.0134 48.3828L28.1563 42.1328C28.7143 41.6445 28.7143 40.8516 28.1563 40.3633C27.5982 39.875 26.692 39.875 26.1339 40.3633L20 45.7305L13.8661 40.3672C13.308 39.8789 12.4018 39.8789 11.8438 40.3672C11.2857 40.8555 11.2857 41.6484 11.8438 42.1367L18.9866 48.3867L18.9911 48.3828Z" fill="#E1EFE1"/>
</svg>
